<svg width="109" height="43" viewBox="0 0 109 43" fill="none" xmlns="http://www.w3.org/2000/svg">
<path d="M1 36.5406C11.5 30.2073 31.9 14.7406 29.5 3.54061C27.1 -7.65939 25.1667 20.8739 24.5 36.5406C24 39.5406 24.3 44.6406 29.5 41.0406C34.7 37.4406 41 29.2073 43.5 25.5406C45.6667 23.0406 49.8 19.5406 49 25.5406C48.2 31.5406 52 31.3739 54 30.5406C55.5 30.5406 58.2 29.1406 57 23.5406C55.5 16.5406 47.5 8.54059 39.5 16.5406C33.1 22.9406 39.5 29.8739 43.5 32.5406C45.5 33.8739 50.1 36.5406 52.5 36.5406C55.5 36.5406 63.5 38.5406 68.5 32.5406C72.5 27.7406 72.8333 24.5406 72.5 23.5406C72.5 22.8739 72.1 21.9406 70.5 23.5406C68.9 25.1406 71.1667 27.8739 72.5 29.0406C73.6667 29.5406 76.3 30.5406 77.5 30.5406C79 30.5406 86 32.0406 84 25.5406C82.4 20.3406 79 20.3739 77.5 21.0406C75.5 22.0406 73 26.5406 79 36.5406C86.5 49.0406 92.5 21.0406 108 21.0406" stroke="black" stroke-linecap="round"/>
</svg>
